<?xml version="1.0" encoding="utf-8"?>
<!-- Generator: Adobe Illustrator 24.0.1, SVG Export Plug-In . SVG Version: 6.00 Build 0)  -->
<svg version="1.1" id="Layer_1" xmlns="http://www.w3.org/2000/svg" xmlns:xlink="http://www.w3.org/1999/xlink" x="0px" y="0px"
	 viewBox="0 0 583.44 230.4" style="enable-background:new 0 0 583.44 230.4;" xml:space="preserve">
<style type="text/css">
	.st0{enable-background:new    ;}
	.st1{clip-path:url(#SVGID_2_);}
	.st2{clip-path:url(#SVGID_4_);}
	.st3{fill:url(#SVGID_5_);}
	.st4{fill:#39368B;}
	.st5{fill:#39368B;stroke:#39368B;stroke-width:0.4;stroke-miterlimit:10;}
	.st6{fill:#91C375;}
</style>
<g id="New_Symbol_1">
</g>
<g>
	<g class="st0">
		<g class="st0">
			<defs>
				<path id="SVGID_1_" class="st0" d="M-1.91,120.19c1.86,47.54,37.09,88.75,86.06,96.58C35.18,208.94-0.05,167.73-1.91,120.19
					c-0.07-3.63-0.16-8.49,0.24-12.1c0.28-2.51,0.58-5.86,1-8.34c0.52-3.06,1.45-7.09,2.15-10.11c1.59-6.81,6.25-17.95,9.04-22.64
					c2.44-4.1,5.79-9.54,8.7-13.32c2.88-3.75,7.13-8.44,10.54-11.7c3.39-3.25,8.27-7.22,12.12-9.91c3.84-2.68,9.18-6,13.45-7.94
					c3.88-1.76,9.09-4.03,13.14-5.36c4.01-1.32,9.47-2.83,13.65-3.47c2.46-0.38,5.73-0.91,8.2-1.15c2.57-0.25,6.01-0.45,8.59-0.48
					c5.65-0.08,11.35,0.32,16.94,1.17c8.39,1.28,14.55,3.29,16.87,4.05c1.67,0.54,4.39,1.5,7.87,2.97c2.17,0.92,4.99,2.32,7.11,3.36
					c3.52,1.72,7.99,4.48,11.18,6.76c3.79,2.71,8.66,6.62,12.03,9.83c3.38,3.22,7.57,7.87,10.43,11.57
					c2.87,3.71,6.33,8.94,8.6,13.05c2.28,4.13,4.93,9.85,6.56,14.28c1.65,4.46,3.22,10.63,4.33,15.26
					c1.13,4.7,1.62,11.17,1.91,15.99c0.21,3.62,0.02,8.48-0.24,12.1c-0.22,3.1-0.69,7.24-1.34,10.28
					c-1.03,4.87-2.45,11.4-4.26,16.03c-1.77,4.52-4.28,10.51-6.6,14.77c-2.28,4.19-5.8,9.53-8.7,13.32
					c-2.87,3.75-7.12,8.44-10.54,11.7c-3.4,3.24-8.31,7.17-12.12,9.91c-3.81,2.73-9.26,5.84-13.45,7.94
					c-3.81,1.9-9.09,4.05-13.14,5.36c-4.02,1.3-9.48,2.77-13.65,3.47c-2.45,0.41-5.73,0.91-8.2,1.15c-2.57,0.25-6.01,0.42-8.59,0.48
					c-1.65,0.04-5.4-0.01-8.61-0.24c-0.6-0.04-2.41-0.18-4.4-0.4c-2.81-0.32-4.65-0.64-4.67-0.64c-0.49-0.09-0.97-0.16-1.46-0.24
					c-0.86-0.15-1.48-0.27-1.49-0.27c-1.75-0.34-2.54-0.51-3.45-0.72c-5.5-1.23-10.85-2.99-14.03-4.23c-1.47-0.57-3.42-1.35-4.86-2
					c-1.77-0.79-4.08-1.95-5.82-2.8c-1.76-0.86-4.03-2.15-5.69-3.19c-3.63-2.29-8.28-5.63-11.68-8.24
					c-1.86-1.42-4.14-3.55-5.84-5.15c-3.39-3.21-7.44-7.98-10.43-11.57c-1.5-1.8-3.18-4.45-4.54-6.35
					c-2.73-3.82-5.66-9.41-7.61-13.69c-1.96-4.31-4-10.3-5.47-14.8c-0.74-2.27-1.32-5.41-1.87-7.74
					C-1.13,131.49-1.53,125.01-1.91,120.19z"/>
			</defs>
			<clipPath id="SVGID_2_">
				<use xlink:href="#SVGID_1_"  style="overflow:visible;"/>
			</clipPath>
			<g class="st1">
				<g class="st0">
					<defs>
						<path id="SVGID_3_" class="st0" d="M83.95,217.13c-0.35-0.08-0.36-0.11-0.45-0.29c-0.13-0.04-0.3-0.04-0.43-0.05
							c-2.13-0.2-3.48-0.48-5.51-0.9l0.3,0.07c1.23,0.27,1.23,0.27,1.84,0.4c0.54,0.11,1.07,0.22,1.61,0.32
							c0.5,0.09,0.99,0.18,1.49,0.27c0.4,0.07,0.94,0.16,1.34,0.22C84.07,217.16,84,217.15,83.95,217.13"/>
					</defs>
					<clipPath id="SVGID_4_">
						<use xlink:href="#SVGID_3_"  style="overflow:visible;"/>
					</clipPath>
					<g class="st2">
						<path d="M-1.91,120.19c0.38,4.82,0.96,11.26,1.91,15.99c0.93,4.67,2.7,10.79,4.33,15.26c5.02,13.73,12.13,23.26,15.16,27.32
							c3.9,5.22,10.96,13.17,22.46,21.4c10.37,7.41,21.3,11.35,25.41,12.84c6.62,2.39,30.37,9.6,58.22,2.34
							c20.13-5.25,37.28-15.62,50.96-30.81c17.8-19.77,23.27-41.14,24.94-52.13c1.96-12.85,1.41-22.6,0.61-28.52
							c-0.64-4.75-1.84-11.05-3.14-15.66c-1.29-4.56-3.42-10.53-5.47-14.8c-3.48-7.25-14.06-29.31-40.1-45.01
							c-17.72-10.69-38.03-15.74-58.73-14.59c-15.61,0.86-45.5,6.4-70.37,33.79C15.44,57.36,8.59,68.85,3.93,81.78
							C-2.34,99.14-2.03,114.43-1.91,120.19c1.86,47.54,37.09,88.75,86.06,96.58C35.18,208.94-0.05,167.73-1.91,120.19"/>
						<path d="M8.73,161.52L8.73,161.52C-26.66,81.42,41.87,34.05,98.33,57.94c75.08,31.78,78.84,126.66,22.21,151.68
							c-29.12,12.87-53.52,3-61.54-0.24c7.86,3.45,16.28,5.97,25.16,7.39c-8.88-1.42-17.3-3.94-25.16-7.39h0
							C41.6,201.18,23.48,189.7,8.73,161.52C2.4,148.87-1.34,134.83-1.91,120.19h0c2.73,34.47,16.26,59.14,43.87,79.98l5.49,3.56
							c7.39,4.15,7.83,4.4,12.79,6.55l3.58,1.44c1.29,0.46,3,1.09,4.29,1.53l2.21,0.7c0.68,0.2,1.59,0.47,2.27,0.67l1.51,0.41
							c0.45,0.12,1.04,0.27,1.49,0.38l1.14,0.28c0.33,0.08,0.78,0.18,1.12,0.26l0.93,0.21l0.91,0.19l0.81,0.16l0.8,0.15l0.75,0.14
							l0.74,0.13l0.73,0.12l0.73,0.12l0.74,0.12l0.73,0.11l0.76,0.11l0.77,0.1l0.83,0.1l0.85,0.1l0.96,0.1l1,0.1l1.2,0.11
							c0.38,0.03,0.88,0.07,1.26,0.1l1.63,0.1c0.52,0.02,1.21,0.06,1.73,0.08l2.48,0.06c0.82,0,1.92,0.01,2.75,0l4.25-0.15
							c1.69-0.13,3.94-0.29,5.63-0.47l6.91-1.01c8.08-1.76,10.25-2.23,19.65-5.65l7.14-3.18c31.48-17.01,50.32-42.44,56-75.61
							l1-8.34c0.14-3.63,0.32-8.47,0.24-12.1l-0.64-8.07c-5.02-31.31-17.94-52.82-43.23-71.91l-5.49-3.56
							c-7.39-4.15-7.83-4.4-12.79-6.55l-3.58-1.44c-1.29-0.46-3-1.09-4.29-1.53l-2.2-0.7c-0.68-0.2-1.59-0.47-2.27-0.67l-1.51-0.41
							c-0.45-0.12-1.04-0.27-1.49-0.38l-1.14-0.28c-0.33-0.08-0.78-0.18-1.12-0.26l-0.93-0.21l-0.91-0.19l-0.81-0.16l-0.8-0.15
							l-0.75-0.14l-0.74-0.13l-0.73-0.12l-0.73-0.12l-0.74-0.12l-0.73-0.11l-0.76-0.11l-0.77-0.1l-0.83-0.1l-0.85-0.1l-0.96-0.1
							l-1-0.1l-1.2-0.11c-0.38-0.03-0.88-0.07-1.26-0.1l-1.63-0.1c-0.52-0.02-1.21-0.06-1.73-0.08l-2.48-0.06
							c-0.82,0-1.92-0.01-2.75,0l-4.25,0.15c-1.69,0.13-3.94,0.29-5.63,0.47l-6.91,1.01c-8.08,1.76-10.26,2.23-19.64,5.65
							l-7.14,3.18c-31.48,17.01-50.32,42.45-56,75.62l-1,8.34c-0.14,3.63-0.32,8.47-0.24,12.1C-1.34,134.83,2.4,148.87,8.73,161.52"
							/>
						<g>
							<path d="M2.45,145.87l-0.24-0.83c-2.37-7.97-3.79-16.31-4.12-24.85h0c1.4,17.63,3.49,27.07,12.48,44.94l-3.43-6.82
								C5.62,154.63,3.64,149.68,2.45,145.87"/>
							<path d="M2.21,145.04C-17.7,63.96,57.53,23.92,117.37,63.28c65.1,42.82,60.56,134.91-7.46,151.6
								c-5.92,1.45-18.21,3.41-34.04,0.22c2.71,0.66,5.48,1.22,8.29,1.67c-2.81-0.45-5.57-1.01-8.29-1.67
								c-1.57-0.41-3.67-0.95-5.24-1.36c-7.33-2.26-14.26-4.4-26.69-12.24l5.57,3.43c3.18,1.69,7.47,3.85,10.75,5.35l3.58,1.44
								c1.29,0.46,3,1.09,4.29,1.53l2.21,0.7c0.68,0.2,1.59,0.47,2.27,0.67l1.51,0.41c0.45,0.12,1.04,0.27,1.49,0.38l1.14,0.28
								c0.33,0.08,0.78,0.18,1.12,0.26l0.93,0.21l0.91,0.19l0.81,0.16l0.8,0.15l0.75,0.14l0.74,0.13l0.73,0.12l0.73,0.12l0.74,0.12
								l0.73,0.11l0.76,0.11l0.77,0.1l0.83,0.1l0.85,0.1l0.96,0.1l1,0.1l1.2,0.11c0.38,0.03,0.88,0.07,1.26,0.1l1.63,0.1
								c0.52,0.02,1.21,0.06,1.73,0.08l2.48,0.06c0.82,0,1.92,0.01,2.75,0l4.25-0.15c1.69-0.13,3.94-0.29,5.63-0.47l6.91-1.01
								c8.08-1.76,10.25-2.23,19.65-5.65l7.14-3.18c31.48-17.01,50.32-42.44,56-75.61l1-8.34c0.14-3.63,0.32-8.47,0.24-12.1
								l-0.64-8.07c-5.02-31.31-17.94-52.82-43.23-71.91l-5.49-3.56c-7.39-4.15-7.83-4.4-12.79-6.55l-3.58-1.44
								c-1.29-0.46-3-1.09-4.29-1.53l-2.2-0.7c-0.68-0.2-1.59-0.47-2.27-0.67l-1.51-0.41c-0.45-0.12-1.04-0.27-1.49-0.38l-1.14-0.28
								c-0.33-0.08-0.78-0.18-1.12-0.26l-0.93-0.21l-0.91-0.19l-0.81-0.16l-0.8-0.15l-0.75-0.14l-0.74-0.13l-0.73-0.12l-0.73-0.12
								l-0.74-0.12l-0.73-0.11l-0.76-0.11l-0.77-0.1l-0.83-0.1l-0.85-0.1l-0.96-0.1l-1-0.1l-1.2-0.11c-0.38-0.03-0.88-0.07-1.26-0.1
								l-1.63-0.1c-0.52-0.02-1.21-0.06-1.73-0.08l-2.48-0.06c-0.82,0-1.92-0.01-2.75,0l-4.25,0.15c-1.69,0.13-3.94,0.29-5.63,0.47
								l-6.91,1.01c-8.08,1.76-10.26,2.23-19.64,5.65l-7.14,3.18c-31.48,17.01-50.32,42.45-56,75.62l-1,8.34
								c-0.14,3.63-0.32,8.47-0.24,12.1C-1.57,128.73-0.16,137.07,2.21,145.04"/>
						</g>
						<g>
							<path d="M-0.76,131.9c-0.6-3.85-0.99-7.76-1.15-11.71c0.19,2.42,0.45,5.65,0.64,8.07c0.47,2.91,1.04,6.81,1.64,9.7
								C0.03,136.15-0.45,133.73-0.76,131.9"/>
							<path d="M-0.76,131.9C-9.95,49.17,72,20.44,129.35,67.01c62.3,50.6,44.63,144.81-28.23,150.46
								c-3.11,0.24-19.52,1.09-37.63-5.86l3.56,1.3l1.05,0.36l2.21,0.7c0.68,0.2,1.59,0.47,2.27,0.67l1.51,0.41
								c0.45,0.12,1.04,0.27,1.49,0.38l1.14,0.28c0.33,0.08,0.78,0.18,1.12,0.26l0.93,0.21l0.91,0.19l0.81,0.16l0.8,0.15l0.75,0.14
								l0.74,0.13l0.73,0.12l0.73,0.12l0.74,0.12l0.73,0.11l0.76,0.11l0.77,0.1l0.83,0.1l0.85,0.1l0.96,0.1l1,0.1l1.2,0.11
								c0.38,0.03,0.88,0.07,1.26,0.1l1.63,0.1c0.52,0.02,1.21,0.06,1.73,0.08l2.48,0.06c0.82,0,1.92,0.01,2.75,0l4.25-0.15
								c1.69-0.13,3.94-0.29,5.63-0.47l6.91-1.01c8.08-1.76,10.25-2.23,19.65-5.65l7.14-3.18c31.48-17.01,50.32-42.44,56-75.61
								l1-8.34c0.14-3.63,0.32-8.47,0.24-12.1l-0.64-8.07c-5.02-31.31-17.94-52.82-43.23-71.91l-5.49-3.56
								c-7.39-4.15-7.83-4.4-12.79-6.55l-3.58-1.44c-1.29-0.46-3-1.09-4.29-1.53l-2.2-0.7c-0.68-0.2-1.59-0.47-2.27-0.67l-1.51-0.41
								c-0.45-0.12-1.04-0.27-1.49-0.38l-1.14-0.28c-0.33-0.08-0.78-0.18-1.12-0.26l-0.93-0.21l-0.91-0.19l-0.81-0.16l-0.8-0.15
								l-0.75-0.14l-0.74-0.13l-0.73-0.12l-0.73-0.12l-0.74-0.12l-0.73-0.11l-0.76-0.11l-0.77-0.1l-0.83-0.1l-0.85-0.1l-0.96-0.1
								l-1-0.1l-1.2-0.11c-0.38-0.03-0.88-0.07-1.26-0.1l-1.63-0.1c-0.52-0.02-1.21-0.06-1.73-0.08l-2.48-0.06
								c-0.82,0-1.92-0.01-2.75,0l-4.25,0.15c-1.69,0.13-3.94,0.29-5.63,0.47l-6.91,1.01c-8.08,1.76-10.26,2.23-19.64,5.65
								l-7.14,3.18c-31.48,17.01-50.32,42.45-56,75.62l-1,8.34c-0.14,3.63-0.32,8.47-0.24,12.1C-1.75,124.15-1.37,128.05-0.76,131.9
								"/>
						</g>
						<path d="M-0.31,99.17c14.09-66.17,102.4-84.13,154-13.02c41.33,56.97,7.12,143.47-69.92,130.96c-0.24-0.04-0.56-0.09-0.8-0.13
							l0.73,0.12l0.55,0.09l0.74,0.12l0.73,0.11l0.76,0.11l0.77,0.1l0.83,0.1l0.85,0.1l0.96,0.1l1,0.1l1.2,0.11
							c0.38,0.03,0.88,0.07,1.26,0.1l1.63,0.1c0.52,0.02,1.21,0.06,1.73,0.08l2.48,0.06c0.82,0,1.92,0.01,2.75,0l4.25-0.15
							c1.69-0.13,3.94-0.29,5.63-0.47l6.91-1.01c8.08-1.76,10.25-2.23,19.65-5.65l7.14-3.18c31.48-17.01,50.32-42.44,56-75.61
							l1-8.34c0.14-3.63,0.32-8.47,0.24-12.1l-0.64-8.07c-5.02-31.31-17.94-52.82-43.23-71.91l-5.49-3.56
							c-7.39-4.15-7.83-4.4-12.79-6.55l-3.58-1.44c-1.29-0.46-3-1.09-4.29-1.53l-2.2-0.7c-0.68-0.2-1.59-0.47-2.27-0.67l-1.51-0.41
							c-0.45-0.12-1.04-0.27-1.49-0.38l-1.14-0.28c-0.33-0.08-0.78-0.18-1.12-0.26l-0.93-0.21l-0.91-0.19l-0.81-0.16l-0.8-0.15
							l-0.75-0.14l-0.74-0.13l-0.73-0.12l-0.73-0.12l-0.74-0.12l-0.73-0.11l-0.76-0.11l-0.77-0.1l-0.83-0.1l-0.85-0.1l-0.96-0.1
							l-1-0.1l-1.2-0.11c-0.38-0.03-0.88-0.07-1.26-0.1l-1.63-0.1c-0.52-0.02-1.21-0.06-1.73-0.08l-2.48-0.06
							c-0.82,0-1.92-0.01-2.75,0l-4.25,0.15c-1.69,0.13-3.94,0.29-5.63,0.47l-6.91,1.01c-8.08,1.76-10.26,2.23-19.64,5.65
							l-7.14,3.18c-31.48,17.01-50.32,42.45-56,75.62l-1,8.34c-0.12,3.04-0.33,7.1-0.3,10.15l0.18-7.71
							C-1.41,107.11-1.03,102.53-0.31,99.17"/>
						<path d="M-0.65,99.67c17.73-83.36,114.94-81.64,158.5-15.88c44.25,66.81,3.88,134.68-57.44,134.69
							c1.73-0.01,4.04-0.1,5.77-0.16c1.69-0.13,3.94-0.29,5.63-0.47l6.91-1.01c8.08-1.76,10.25-2.23,19.65-5.65l7.14-3.18
							c31.48-17.01,50.32-42.44,56-75.61l1-8.34c0.14-3.63,0.32-8.47,0.24-12.1l-0.64-8.07c-5.02-31.31-17.94-52.82-43.23-71.91
							l-5.49-3.56c-7.39-4.15-7.83-4.4-12.79-6.55l-3.58-1.44c-1.29-0.46-3-1.09-4.29-1.53l-2.2-0.7c-0.68-0.2-1.59-0.47-2.27-0.67
							l-1.51-0.41c-0.45-0.12-1.04-0.27-1.49-0.38l-1.14-0.28c-0.33-0.08-0.78-0.18-1.12-0.26l-0.93-0.21l-0.91-0.19l-0.81-0.16
							l-0.8-0.15l-0.75-0.14l-0.74-0.13l-0.73-0.12l-0.73-0.12l-0.74-0.12l-0.73-0.11l-0.76-0.11l-0.77-0.1l-0.83-0.1l-0.85-0.1
							l-0.96-0.1l-1-0.1l-1.2-0.11c-0.38-0.03-0.88-0.07-1.26-0.1l-1.63-0.1c-0.52-0.02-1.21-0.06-1.73-0.08l-2.48-0.06
							c-0.82,0-1.92-0.01-2.75,0l-4.25,0.15c-1.69,0.13-3.94,0.29-5.63,0.47l-6.91,1.01c-8.08,1.76-10.26,2.23-19.64,5.65
							l-7.14,3.18c-31.48,17.01-50.32,42.45-56,75.62c-0.1,0.7-0.24,1.63-0.35,2.32C-0.9,101.35-0.78,100.39-0.65,99.67"/>
						<path d="M6,76.6c36.86-78.99,142.41-49.02,169.07,28.39c22.66,65.79-20.02,105.14-57.56,112.07l6.88-1.41
							c8.86-2.46,9.2-2.56,13.97-4.45l7.14-3.18c31.48-17.01,50.32-42.44,56-75.61l1-8.34c0.14-3.63,0.32-8.47,0.24-12.1l-0.64-8.07
							c-5.02-31.31-17.94-52.82-43.23-71.91l-5.49-3.56c-7.39-4.15-7.83-4.4-12.79-6.55l-3.58-1.44c-1.29-0.46-3-1.09-4.29-1.53
							l-2.2-0.7c-0.68-0.2-1.59-0.47-2.27-0.67l-1.51-0.41c-0.45-0.12-1.04-0.27-1.49-0.38l-1.14-0.28
							c-0.33-0.08-0.78-0.18-1.12-0.26l-0.93-0.21l-0.91-0.19l-0.81-0.16l-0.8-0.15l-0.75-0.14l-0.74-0.13l-0.73-0.12l-0.73-0.12
							l-0.74-0.12l-0.73-0.11l-0.76-0.11l-0.77-0.1l-0.83-0.1l-0.85-0.1l-0.96-0.1l-1-0.1l-1.2-0.11c-0.38-0.03-0.88-0.07-1.26-0.1
							l-1.63-0.1c-0.52-0.02-1.21-0.06-1.73-0.08l-2.48-0.06c-0.82,0-1.92-0.01-2.75,0l-4.25,0.15c-1.69,0.13-3.94,0.29-5.63,0.47
							l-6.91,1.01c-8.08,1.76-10.26,2.23-19.64,5.65l-7.14,3.18c-10.61,5.73-38.8,20.96-52.04,59.49L6,76.61C6,76.61,6,76.6,6,76.6"
							/>
						<path d="M17.36,56.39c56.91-73.09,163.62-3.84,170.08,69.03c2.57,29-8.66,68.82-48.77,85.64l7.13-3.2
							c31.37-17.08,50.1-42.47,55.69-75.46l1-8.34c0.14-3.63,0.32-8.47,0.24-12.1l-0.64-8.07c-5.02-31.31-17.94-52.82-43.23-71.91
							l-5.49-3.56c-7.39-4.15-7.83-4.4-12.79-6.55l-3.58-1.44c-1.29-0.46-3-1.09-4.29-1.53l-2.2-0.7c-0.68-0.2-1.59-0.47-2.27-0.67
							l-1.51-0.41c-0.45-0.12-1.04-0.27-1.49-0.38l-1.14-0.28c-0.33-0.08-0.78-0.18-1.12-0.26l-0.93-0.21l-0.91-0.19l-0.81-0.16
							l-0.8-0.15l-0.75-0.14l-0.74-0.13l-0.73-0.12l-0.73-0.12l-0.74-0.12l-0.73-0.11l-0.76-0.11l-0.77-0.1l-0.83-0.1l-0.85-0.1
							l-0.96-0.1c-0.3-0.03-0.7-0.07-1-0.1l-1.2-0.11c-0.38-0.03-0.88-0.07-1.26-0.1l-1.63-0.1c-0.52-0.02-1.21-0.06-1.73-0.08
							l-2.48-0.06c-0.82,0-1.92-0.01-2.75,0l-4.25,0.15c-1.69,0.13-3.94,0.29-5.63,0.47l-6.91,1.01
							c-8.08,1.76-10.26,2.23-19.64,5.65l-7.14,3.18c-17.07,9.22-30.26,19.16-43.28,40.19l4.01-6.15
							C16.45,57.64,16.96,56.92,17.36,56.39"/>
					</g>
				</g>
			</g>
		</g>
		<radialGradient id="SVGID_5_" cx="105.8609" cy="115.9012" r="105.7742" gradientUnits="userSpaceOnUse">
			<stop  offset="0" style="stop-color:#91C375"/>
			<stop  offset="0.36" style="stop-color:#90C276"/>
			<stop  offset="0.4896" style="stop-color:#8CBE7A"/>
			<stop  offset="0.5821" style="stop-color:#86B77F"/>
			<stop  offset="0.6568" style="stop-color:#7DAC86"/>
			<stop  offset="0.7208" style="stop-color:#719F8D"/>
			<stop  offset="0.7776" style="stop-color:#658E92"/>
			<stop  offset="0.8289" style="stop-color:#587995"/>
			<stop  offset="0.876" style="stop-color:#4B6194"/>
			<stop  offset="0.9179" style="stop-color:#42468F"/>
			<stop  offset="0.9276" style="stop-color:#403F8D"/>
		</radialGradient>
		<path class="st3" d="M201.81,100.71c-1.63-10.05-4.41-19.74-9.15-28.81c-6.48-12.41-15.27-22.84-26.73-30.93
			c-5.32-3.76-11.01-6.8-17.36-8.44c-1.92-0.5-3.86-0.78-5.84-0.43c-2.25,0.4-4.08,1.62-5.79,3.04c-4.95,4.09-9.25,8.81-12.92,14.06
			c-3.92,5.59-7.68,11.3-11.49,16.97c-4.57,6.8-9.57,13.23-15.82,18.59c-12.53,10.74-26.84,17.35-43.45,18.52
			c-6.21,0.44-12.33-0.19-18.22-2.33c-6.45-2.33-11.67-6.19-14.9-12.39c-2.65-5.09-3.24-10.56-2.74-16.19
			c0.55-6.2,2.63-11.91,5.82-17.23C27.32,48.3,32.78,42.65,39,37.73c10.42-8.24,22.07-14.17,34.63-18.37
			c3.03-1.01,7.45-2.09,10.08-2.59c2.37-0.45,8.13-1.09,10.22-1.35c0.03,0,1.18-0.12,2.28-0.18c0.75-0.04,2.01-0.04,2.21-0.02
			c1.8,0.19,3.28,0.79,4.06,2.25c1.18,2.18,0.19,6.2-0.54,9.12c-1.81,7.3-3.89,14.51-7.15,21.33c-2.61,5.46-5.92,10.43-10.35,14.61
			c-5.3,5-11.56,8.29-18.5,10.39c-5.13,1.55-10.33,2.51-15.71,1.7c-3.64-0.55-6.99-1.8-9.68-4.4c-3.82-3.7-4.76-8.28-3.77-13.34
			c0.88-4.48,3.03-8.36,5.85-11.88c3.79-4.71,8.4-8.49,13.46-11.74c6.02-3.86,12.38-7,19.42-8.55c2.26-0.5,4.54-0.8,6.84-0.22
			c2.15,0.54,3.13,1.86,3.08,4.08c-0.04,1.74-0.61,3.35-1.35,4.9c-1.94,4.08-4.73,7.54-7.98,10.64c-2.47,2.36-5.15,4.42-8.31,5.78
			c-1.78,0.77-3.63,1.33-5.6,0.93c-3.14-0.63-4.7-2.62-3.58-5.84c0.86-2.48,2.48-4.37,4.81-5.57c0.84-0.43,1.8-0.61,2.8-0.93
			c0.11,0.5,0.19,0.72,0.2,0.95c0.02,0.33,0.01,0.66-0.01,0.99c-0.06,0.83,0.52,1.41,1.26,1.11c1.07-0.43,2.18-0.85,3.11-1.5
			c2.08-1.46,3.73-3.31,4.26-5.92c0.34-1.68-0.49-2.86-2.21-2.93c-1.33-0.05-2.74,0-4,0.38c-7.1,2.14-12.99,6.15-17.59,11.98
			c-2.01,2.54-3.47,5.36-3.96,8.63c-0.55,3.71,1.05,6.86,4.4,8.53c2,1,4.14,1.51,6.36,1.65c4.24,0.28,8.18-0.83,11.91-2.75
			c4.46-2.29,8.27-5.44,11.68-9.1c5.39-5.79,9.7-12.26,12.35-19.77c0.93-2.63,1.56-5.32,1.25-8.15c-0.21-1.89-0.85-2.73-2.68-3.23
			c-0.88-0.24-1.81-0.38-2.73-0.43c-3.37-0.18-6.67,0.35-9.94,1.07c-7.38,1.63-14.38,4.32-21.08,7.78
			c-7.94,4.1-15.19,9.15-21.3,15.73c-3.95,4.25-7.29,8.93-9.43,14.37c-1.85,4.71-2.61,9.57-1.44,14.57
			c1.61,6.86,5.94,11.48,12.29,14.25c6.28,2.74,12.83,2.91,19.48,1.78c5.73-0.98,11.12-2.95,16.26-5.62
			c8.61-4.47,16.31-10.14,22.5-17.7c6.44-7.86,10.34-22.44,11.57-28.79c1.37-7.07,1.3-7.65,1.97-12.02c0.45-2.92,1.52-9.14-0.44-9.5
			c-2.09-0.39-4.17-0.63-14.78,0.16c0,0-5.77,0.61-8.25,0.89c-0.05,0.01-4.87,0.77-4.9,0.77c-11.38,2.07-22.17,5.8-32.29,11.43
			c-4.15,2.31-8.23,4.74-11.88,7.8c-4.45,3.73-7.5,5.98-11.16,10.48c-5.3,6.52-10.79,15.52-14.19,23.24
			c-2.59,5.87-4.34,11.94-4.08,18.45c0.19,4.66,1.52,8.95,4.15,12.82c2.87,4.22,6.74,7.3,11.15,9.75c6.76,3.77,14.09,5.93,21.64,7.4
			c3.91,0.76,7.86,1.26,11.79,1.91c10.86,1.82,21,5.59,30.37,11.36c9.23,5.68,17.14,12.79,23.14,21.88
			c4.87,7.38,8.01,15.37,8.19,24.34c0.11,5.63-1.11,10.97-3.69,15.98c-3.48,6.78-8.66,12.01-15,16.13
			c-6.81,4.42-14.28,6.24-22.37,5.39c-5.86-0.61-11.31-2.53-16.47-5.32c-7.96-4.29-14.67-10.1-20.42-17.04
			c-4.48-5.4-8.22-11.26-10.58-17.91c-1.08-3.06-1.9-6.21-1.58-9.47c0.7-7.24,4.57-12.15,11.34-14.73
			c5.05-1.93,10.31-2.08,15.57-1.24c11.72,1.88,21.6,7.24,29.38,16.24c4.21,4.87,7.3,10.37,8.2,16.85
			c1.12,8.02-1.01,15.07-7.04,20.6c-5.62,5.16-12.08,6.58-19.26,3.38c-5.9-2.63-10.68-6.66-14.61-11.73
			c-2.39-3.08-4.3-6.42-5.08-10.3c-1.12-5.57,2.39-9.89,8.08-9.91c3.87-0.02,7.2,1.49,10.22,3.78c2.52,1.92,4.53,4.26,5.5,7.34
			c0.55,1.75,0.6,3.51-0.13,5.22c-0.66,1.54-2.28,2.49-3.89,2.35c-1.41-0.12-2.46-1.2-2.86-2.95c-0.13-0.58-0.23-1.16-0.34-1.74
			c-0.36-1.83-1.52-2.9-3.27-3.37c-2.51-0.68-4.4,0.88-4.16,3.47c0.08,0.84,0.26,1.71,0.6,2.47c1.96,4.41,5.24,7.52,9.66,9.38
			c5,2.09,9.77,0.69,12.96-3.7c2.55-3.51,3.03-7.45,2.23-11.6c-1.01-5.23-3.7-9.56-7.41-13.28c-4.51-4.53-9.95-7.44-16.12-9.03
			c-3.79-0.98-7.58-1.16-11.37,0.02c-5.79,1.8-9.34,6.57-9.28,12.55c0.03,3.05,0.77,5.97,2.03,8.74
			c2.89,6.37,6.92,11.93,12.03,16.69c6.94,6.45,14.96,10.66,24.56,11.34c5.91,0.42,11.5-0.75,16.52-3.96
			c8.06-5.16,11.87-12.94,13.17-22.12c0.75-5.32-0.3-10.44-2.34-15.37c-2.78-6.71-7.06-12.37-12.25-17.38
			c-7.07-6.83-15.2-12.01-24.39-15.49c-6.52-2.46-13.23-3.88-20.24-3.56c-5.9,0.27-11.41,1.81-16.33,5.17
			c-6.97,4.75-10.5,11.37-10.55,19.79c-0.03,5.1,1.27,9.95,3.3,14.6c3.54,8.11,8.8,14.99,15.19,21.02
			c11.73,11.07,25.48,18.32,41.25,21.75c2.74,0.6,5.48,1.01,8.32,0.61c6.47-0.92,12.62-2.82,18.41-5.83
			c8.52-4.42,15.24-10.71,19.96-19.11c5.28-9.42,6.83-19.34,4.19-29.86c-1.25-4.99-3.23-9.71-5.31-14.39
			c-2.15-4.83-4.4-9.62-5.95-14.69c-2.58-8.44-3.3-17.1-3.01-25.88c0.31-9.44,1.82-18.68,4.47-27.73
			c2.37-8.09,5.58-15.82,10.3-22.86c2.89-4.31,6.26-8.18,10.63-11.07c6.17-4.08,12.72-4.94,19.64-2.19
			c3.39,1.35,6.45,3.31,9.38,5.46c8.81,6.47,15.38,14.81,20.28,24.5c6.83,13.5,10.12,27.82,9.67,42.97
			c-0.16,5.33-0.9,10.58-2.46,15.7c-1.73,5.7-4.29,10.96-8.67,15.13c-3.94,3.76-8.59,5.99-14.11,6.01
			c-4.13,0.02-7.85-1.44-11.26-3.69c-4.7-3.11-8.35-7.24-11.28-11.99c-7.73-12.53-10.79-26.19-9.53-40.83
			c0.6-7.04,2.51-13.74,5.72-20.04c1.77-3.47,3.86-6.71,6.87-9.26c4.41-3.75,9.33-4.61,14.74-2.47c3.39,1.35,6.23,3.53,8.73,6.13
			c5.31,5.52,8.95,12.05,11.17,19.35c1.99,6.52,2.77,13.17,1.51,19.95c-0.68,3.64-1.95,7.03-4.44,9.87
			c-3.21,3.66-7.68,4.38-11.87,1.92c-2.13-1.25-3.82-2.98-5.09-5.07c-3.64-5.97-4.79-12.46-3.89-19.34
			c0.29-2.23,0.96-4.36,2.38-6.17c1.49-1.9,3.67-2.48,5.69-1.5c2.8,1.35,4.44,4.91,3.66,7.92c-0.14,0.55-0.39,0.81-0.99,0.9
			c-1.81,0.28-2.41,1.05-2.42,2.9c-0.01,2.11,0.72,3.96,2.06,5.55c2.11,2.49,5.16,2.3,6.9-0.45c0.57-0.91,1.01-1.94,1.29-2.98
			c1.07-4.01,0.71-8.01-0.43-11.94c-1.56-5.38-4.36-9.98-8.84-13.43c-2.34-1.8-4.98-2.75-7.99-2.18c-2.49,0.47-4.43,1.88-6.07,3.73
			c-2.7,3.03-4.25,6.65-5.28,10.51c-1.58,5.93-1.76,11.94-1.01,18c0.8,6.46,2.71,12.55,6.12,18.12c2.58,4.21,5.77,7.83,10.17,10.23
			c5.6,3.05,11.5,2.68,16.38-2.26c5.98-6.06,8.94-13.4,9.64-21.77c0.5-5.9-0.12-11.71-1.58-17.42
			c-3.37-13.21-9.59-24.85-19.22-34.58c-3.16-3.19-6.7-5.88-10.85-7.7c-3.24-1.42-6.59-2.08-10.12-1.41c-4.17,0.79-7.54,3-10.51,5.9
			c-3.73,3.65-6.46,8-8.66,12.69c-4.71,10.02-6.9,20.65-7.37,31.65c-0.33,7.55,0.27,15.03,1.95,22.41
			c2.57,11.31,7.35,21.5,15.25,30.1c3.62,3.94,7.63,7.41,12.49,9.76c8.41,4.07,16.6,3.79,24.41-1.52c4.94-3.36,8.47-7.98,11.25-13.2
			c3.94-7.41,5.99-15.39,6.95-23.67C203.32,117.58,203.18,109.12,201.81,100.71z"/>
	</g>
</g>
<g>
	<path class="st4" d="M226.03,42.33h1.15v11.19c0,4.62,1.95,6.93,5.85,6.93c4.08,0,6.12-2.31,6.12-6.93V42.33h1.15v11.19
		c0,5.28-2.42,7.92-7.27,7.92c-4.67,0-7-2.64-7-7.92V42.33z"/>
	<path class="st4" d="M249.08,60.99V42.33h1.44l11.84,17.12V42.33h1.15v18.66h-1.36l-11.91-17.25v17.25H249.08z"/>
	<path class="st4" d="M300.73,47.9h-1.15c-0.24-1.53-0.96-2.75-2.16-3.66s-2.59-1.36-4.2-1.36c-2.37,0-4.27,0.86-5.7,2.59
		c-1.36,1.64-2.04,3.7-2.04,6.2c0,2.49,0.68,4.56,2.04,6.19c1.43,1.72,3.33,2.59,5.7,2.59c1.78,0,3.32-0.69,4.63-2.07
		c1.26-1.31,1.94-2.86,2.04-4.65h1.15c-0.21,2.23-1.05,4.07-2.52,5.53c-1.47,1.46-3.24,2.18-5.29,2.18c-2.72,0-4.9-0.95-6.53-2.85
		c-1.57-1.79-2.35-4.1-2.35-6.93c0-2.82,0.78-5.13,2.35-6.93c1.64-1.9,3.82-2.85,6.53-2.85c2.77,0,4.85,0.97,6.22,2.9
		C300.2,45.85,300.63,46.89,300.73,47.9z"/>
	<path class="st4" d="M308.94,60.99V42.33h1.15V60h10.59v0.99H308.94z"/>
	<path class="st4" d="M327.5,60.99V42.33h1.15v18.66H327.5z"/>
	<path class="st4" d="M337.44,60.99V42.33h1.65l7.29,17.38h0.05l7.21-17.38h1.65v18.66h-1.15V43.74l-7.16,17.25h-1.16l-7.24-17.25
		v17.25H337.44z"/>
	<path class="st4" d="M369.61,42.33h1.25l7.37,18.66h-1.23l-2.35-5.99h-8.94l-2.38,5.99h-1.23L369.61,42.33z M366.08,54.01h8.21
		l-4-10.56h-0.05L366.08,54.01z"/>
	<path class="st4" d="M389.61,43.32h-6.56v-0.99h14.3v0.99h-6.59v17.67h-1.15V43.32z"/>
	<path class="st4" d="M405.26,60h11.53v0.99h-12.68V42.33h12.55v0.99h-11.4v7.48h10.72v0.99h-10.72V60z"/>
	<path class="st4" d="M452.68,47.9h-1.15c-0.24-1.53-0.96-2.75-2.16-3.66c-1.19-0.91-2.59-1.36-4.2-1.36c-2.37,0-4.27,0.86-5.7,2.59
		c-1.36,1.64-2.04,3.7-2.04,6.2c0,2.49,0.68,4.56,2.04,6.19c1.43,1.72,3.33,2.59,5.7,2.59c1.78,0,3.32-0.69,4.63-2.07
		c1.26-1.31,1.94-2.86,2.04-4.65h1.15c-0.21,2.23-1.05,4.07-2.52,5.53c-1.47,1.46-3.24,2.18-5.29,2.18c-2.72,0-4.9-0.95-6.53-2.85
		c-1.57-1.79-2.35-4.1-2.35-6.93c0-2.82,0.78-5.13,2.35-6.93c1.64-1.9,3.82-2.85,6.53-2.85c2.77,0,4.85,0.97,6.22,2.9
		C452.15,45.85,452.58,46.89,452.68,47.9z"/>
	<path class="st4" d="M473.96,51.79h-11.92v9.2h-1.15V42.33h1.15v8.47h11.92v-8.47h1.15v18.66h-1.15V51.79z"/>
	<path class="st4" d="M489.43,42.33h1.25l7.37,18.66h-1.23l-2.35-5.99h-8.94l-2.38,5.99h-1.23L489.43,42.33z M485.9,54.01h8.21
		l-4-10.56h-0.05L485.9,54.01z"/>
	<path class="st4" d="M504.88,60.99V42.33h1.44l11.84,17.12V42.33h1.15v18.66h-1.36l-11.91-17.25v17.25H504.88z"/>
	<path class="st4" d="M536.46,51.84h7.87v9.15h-0.99v-3.97c-0.45,1.34-1.33,2.41-2.64,3.22c-1.3,0.8-2.78,1.2-4.45,1.2
		c-2.75,0-4.92-0.94-6.53-2.82c-1.52-1.78-2.28-4.06-2.28-6.85c0-2.77,0.77-5.08,2.3-6.93c1.64-1.97,3.81-2.95,6.51-2.95
		c1.97,0,3.66,0.55,5.07,1.65c1.48,1.15,2.38,2.68,2.69,4.58h-1.1c-0.43-1.64-1.23-2.92-2.39-3.84c-1.16-0.92-2.58-1.39-4.25-1.39
		c-2.4,0-4.31,0.9-5.72,2.69c-1.31,1.66-1.96,3.72-1.96,6.2c0,2.51,0.64,4.55,1.93,6.12c1.38,1.71,3.29,2.56,5.75,2.56
		c2.21,0,3.97-0.7,5.25-2.09c1.29-1.39,1.89-3.23,1.81-5.52h-6.88V51.84z"/>
	<path class="st4" d="M554.1,60h11.53v0.99h-12.68V42.33h12.55v0.99h-11.4v7.48h10.72v0.99H554.1V60z"/>
</g>
<g>
	<path class="st5" d="M244.19,180.81h-1.15c-0.24-1.53-0.96-2.75-2.16-3.66s-2.59-1.36-4.2-1.36c-2.37,0-4.27,0.86-5.7,2.59
		c-1.36,1.64-2.04,3.7-2.04,6.2c0,2.49,0.68,4.56,2.04,6.19c1.43,1.72,3.33,2.59,5.7,2.59c1.78,0,3.32-0.69,4.63-2.07
		c1.26-1.31,1.94-2.86,2.04-4.65h1.15c-0.21,2.23-1.05,4.07-2.52,5.53c-1.47,1.46-3.24,2.18-5.29,2.18c-2.72,0-4.9-0.95-6.53-2.85
		c-1.57-1.79-2.35-4.1-2.35-6.93c0-2.82,0.78-5.13,2.35-6.93c1.64-1.9,3.82-2.85,6.53-2.85c2.77,0,4.85,0.97,6.22,2.9
		C243.66,178.76,244.09,179.8,244.19,180.81z"/>
	<path class="st5" d="M266.44,184.57c0,2.81-0.78,5.11-2.35,6.93c-1.62,1.9-3.79,2.85-6.51,2.85c-2.72,0-4.9-0.95-6.53-2.85
		c-1.57-1.79-2.35-4.1-2.35-6.93c0-2.82,0.78-5.13,2.35-6.93c1.64-1.9,3.82-2.85,6.53-2.85c2.72,0,4.89,0.95,6.51,2.85
		C265.65,179.46,266.44,181.77,266.44,184.57z M249.84,184.57c0,2.49,0.68,4.56,2.04,6.19c1.43,1.72,3.33,2.59,5.7,2.59
		c2.35,0,4.24-0.86,5.67-2.59c1.36-1.64,2.04-3.7,2.04-6.19c0-2.49-0.68-4.56-2.04-6.2c-1.43-1.72-3.32-2.59-5.67-2.59
		c-2.37,0-4.27,0.86-5.7,2.59C250.52,180.01,249.84,182.08,249.84,184.57z"/>
	<path class="st5" d="M271.51,193.9v-18.66h1.44l11.84,17.12v-17.12h1.15v18.66h-1.36l-11.91-17.25v17.25H271.51z"/>
	<path class="st5" d="M302.51,184.7H293v9.2h-1.15v-18.66h11.71v0.99H293v7.48h9.51V184.7z"/>
	<path class="st5" d="M309.05,192.91h11.53v0.99H307.9v-18.66h12.55v0.99h-11.4v7.48h10.72v0.99h-10.72V192.91z"/>
	<path class="st5" d="M325.15,193.9v-18.66h7.79c3.94,0,5.91,1.6,5.91,4.81c0,1.26-0.36,2.31-1.07,3.18
		c-0.71,0.86-1.69,1.4-2.93,1.61v0.05c1.64,0.19,2.72,0.91,3.24,2.17c0.28,0.71,0.43,1.96,0.45,3.74c0.02,1.6,0.21,2.64,0.58,3.11
		h-1.28c-0.25-0.45-0.39-1.16-0.42-2.12c0-0.73-0.01-1.47-0.03-2.22c-0.03-1.46-0.4-2.52-1.08-3.18c-0.69-0.65-1.81-0.98-3.36-0.98
		h-6.64v8.5H325.15z M326.3,184.41h6.64c1.45,0,2.58-0.34,3.4-1.02c0.91-0.73,1.36-1.82,1.36-3.27c0-1.32-0.48-2.33-1.44-3.01
		c-0.84-0.59-1.94-0.89-3.32-0.89h-6.64V184.41z"/>
	<path class="st5" d="M345.38,192.91h11.53v0.99h-12.68v-18.66h12.55v0.99h-11.4v7.48h10.72v0.99h-10.72V192.91z"/>
	<path class="st5" d="M361.48,193.9v-18.66h1.44l11.84,17.12v-17.12h1.15v18.66h-1.36l-11.91-17.25v17.25H361.48z"/>
	<path class="st5" d="M397.5,180.81h-1.15c-0.24-1.53-0.96-2.75-2.16-3.66c-1.19-0.91-2.59-1.36-4.2-1.36
		c-2.37,0-4.27,0.86-5.7,2.59c-1.36,1.64-2.04,3.7-2.04,6.2c0,2.49,0.68,4.56,2.04,6.19c1.43,1.72,3.33,2.59,5.7,2.59
		c1.78,0,3.32-0.69,4.63-2.07c1.26-1.31,1.94-2.86,2.04-4.65h1.15c-0.21,2.23-1.05,4.07-2.52,5.53c-1.47,1.46-3.24,2.18-5.29,2.18
		c-2.72,0-4.9-0.95-6.53-2.85c-1.57-1.79-2.35-4.1-2.35-6.93c0-2.82,0.78-5.13,2.35-6.93c1.64-1.9,3.82-2.85,6.53-2.85
		c2.77,0,4.85,0.97,6.22,2.9C396.97,178.76,397.4,179.8,397.5,180.81z"/>
	<path class="st5" d="M403.99,192.91h11.53v0.99h-12.68v-18.66h12.55v0.99h-11.4v7.48h10.72v0.99h-10.72V192.91z"/>
	<path class="st5" d="M446.88,184.57c0,2.81-0.78,5.11-2.35,6.93c-1.62,1.9-3.79,2.85-6.51,2.85c-2.72,0-4.9-0.95-6.53-2.85
		c-1.57-1.79-2.35-4.1-2.35-6.93c0-2.82,0.78-5.13,2.35-6.93c1.64-1.9,3.82-2.85,6.53-2.85c2.72,0,4.89,0.95,6.51,2.85
		C446.1,179.46,446.88,181.77,446.88,184.57z M430.28,184.57c0,2.49,0.68,4.56,2.04,6.19c1.43,1.72,3.33,2.59,5.7,2.59
		c2.35,0,4.24-0.86,5.67-2.59c1.36-1.64,2.04-3.7,2.04-6.19c0-2.49-0.68-4.56-2.04-6.2c-1.43-1.72-3.32-2.59-5.67-2.59
		c-2.37,0-4.27,0.86-5.7,2.59C430.96,180.01,430.28,182.08,430.28,184.57z"/>
	<path class="st5" d="M462.62,184.7h-9.51v9.2h-1.15v-18.66h11.71v0.99H453.1v7.48h9.51V184.7z"/>
	<path class="st5" d="M483.74,185.12l6.77-9.88h1.28l-7.5,10.85v7.82h-1.15v-7.82l-7.45-10.85h1.31L483.74,185.12z"/>
	<path class="st5" d="M512.41,184.57c0,2.81-0.78,5.11-2.35,6.93c-1.62,1.9-3.79,2.85-6.51,2.85c-2.72,0-4.9-0.95-6.53-2.85
		c-1.57-1.79-2.35-4.1-2.35-6.93c0-2.82,0.78-5.13,2.35-6.93c1.64-1.9,3.82-2.85,6.53-2.85c2.72,0,4.89,0.95,6.51,2.85
		C511.63,179.46,512.41,181.77,512.41,184.57z M495.81,184.57c0,2.49,0.68,4.56,2.04,6.19c1.43,1.72,3.33,2.59,5.7,2.59
		c2.35,0,4.24-0.86,5.67-2.59c1.36-1.64,2.04-3.7,2.04-6.19c0-2.49-0.68-4.56-2.04-6.2c-1.43-1.72-3.32-2.59-5.67-2.59
		c-2.37,0-4.27,0.86-5.7,2.59C496.49,180.01,495.81,182.08,495.81,184.57z"/>
	<path class="st5" d="M517.48,175.24h1.15v11.19c0,4.62,1.95,6.93,5.85,6.93c4.08,0,6.12-2.31,6.12-6.93v-11.19h1.15v11.19
		c0,5.28-2.42,7.92-7.27,7.92c-4.67,0-7-2.64-7-7.92V175.24z"/>
	<path class="st5" d="M542.21,176.23h-6.56v-0.99h14.3v0.99h-6.59v17.67h-1.15V176.23z"/>
	<path class="st5" d="M566.91,184.7h-11.92v9.2h-1.15v-18.66h1.15v8.47h11.92v-8.47h1.15v18.66h-1.15V184.7z"/>
</g>
<path class="st4" d="M263.82,78.18c5.36,0,10.34,0.94,14.96,2.83c4.61,1.89,8.71,4.47,12.28,7.74c0.2,0.2,0.35,0.35,0.45,0.45
	c0.1,0.1,0.25,0.25,0.45,0.45h0.15c0.3,0.5,0.45,0.94,0.45,1.34c0,1.09-0.54,1.64-1.64,1.64c-0.7,0-1.19-0.25-1.49-0.74
	c-3.27-3.17-7.05-5.68-11.31-7.51c-4.27-1.83-8.93-2.8-13.99-2.9h-0.3c-4.17,0-8.06,0.97-11.68,2.9c-3.62,1.93-6.8,4.56-9.52,7.89
	c-2.73,3.32-4.89,7.22-6.47,11.68c-1.59,4.46-2.38,9.23-2.38,14.29c0,5.06,0.79,9.82,2.38,14.29c1.58,4.46,3.74,8.33,6.47,11.61
	c2.73,3.27,5.9,5.88,9.52,7.81c3.62,1.93,7.52,2.9,11.68,2.9h0.15c5.06,0,9.8-0.94,14.21-2.83c4.41-1.88,8.26-4.51,11.53-7.89
	c0.3-0.3,0.69-0.45,1.19-0.45c1.09,0,1.64,0.55,1.64,1.64c0,0.5-0.15,0.89-0.45,1.19c-3.67,3.67-7.91,6.55-12.72,8.63
	c-4.81,2.08-10,3.13-15.55,3.13c-5.56,0-10.76-1.04-15.63-3.13c-4.86-2.08-9.1-4.96-12.72-8.63c-3.62-3.67-6.47-7.91-8.56-12.72
	c-2.08-4.81-3.12-9.99-3.12-15.55c0-5.56,1.04-10.76,3.12-15.63c2.08-4.86,4.93-9.1,8.56-12.72c3.62-3.62,7.86-6.47,12.72-8.56
	S258.27,78.18,263.82,78.18z"/>
<path class="st4" d="M341.16,78.18c5.46,0,10.62,1.04,15.48,3.13c4.86,2.08,9.13,4.94,12.8,8.56c3.67,3.62,6.55,7.86,8.63,12.72
	c2.09,4.86,3.13,10.07,3.13,15.63c0,5.56-1.04,10.74-3.13,15.55c-2.08,4.81-4.96,9.06-8.63,12.72c-3.67,3.67-7.94,6.55-12.8,8.63
	c-4.86,2.08-10.02,3.13-15.48,3.13c-5.56,0-10.76-1.04-15.63-3.13c-4.86-2.08-9.1-4.96-12.72-8.63c-3.62-3.67-6.47-7.91-8.56-12.72
	c-2.08-4.81-3.12-9.99-3.12-15.55c0-5.56,1.04-10.76,3.12-15.63c2.08-4.86,4.93-9.1,8.56-12.72c3.62-3.62,7.86-6.47,12.72-8.56
	C330.4,79.22,335.61,78.18,341.16,78.18z M341.16,81.45c-4.17,0-8.06,0.97-11.68,2.9c-3.62,1.93-6.8,4.56-9.52,7.89
	c-2.73,3.32-4.89,7.22-6.47,11.68c-1.59,4.46-2.38,9.23-2.38,14.29c0,5.06,0.79,9.82,2.38,14.29c1.58,4.46,3.74,8.33,6.47,11.61
	c2.73,3.27,5.9,5.88,9.52,7.81c3.62,1.93,7.52,2.9,11.68,2.9c4.17,0,8.06-0.97,11.68-2.9c3.62-1.94,6.8-4.54,9.53-7.81
	c2.73-3.27,4.89-7.14,6.47-11.61c1.59-4.47,2.38-9.23,2.38-14.29c0-5.06-0.79-9.82-2.38-14.29c-1.59-4.47-3.74-8.36-6.47-11.68
	c-2.73-3.32-5.91-5.95-9.53-7.89C349.22,82.42,345.33,81.45,341.16,81.45z"/>
<path class="st4" d="M448.76,79.37c1.09,0,1.63,0.55,1.63,1.64c0,0.5-0.15,0.89-0.45,1.19l-27.98,33.34v36.61
	c0,1.29-0.47,2.41-1.41,3.35c-0.94,0.94-2.11,1.41-3.5,1.41c-1.39,0-2.53-0.47-3.42-1.41c-0.89-0.94-1.34-2.06-1.34-3.35V119.4
	l-26.94-32.14c-0.7-0.99-1.04-1.98-1.04-2.98c0-1.39,0.47-2.55,1.41-3.5c0.94-0.94,2.06-1.41,3.35-1.41c1.39,0,2.63,0.55,3.72,1.64
	c0,0.1,0.02,0.15,0.08,0.15c0.05,0,0.08,0.05,0.08,0.15l26.79,31.85l27.83-33.19C447.96,79.57,448.36,79.37,448.76,79.37z"/>
<path class="st6" d="M493.3,155.49c-0.89,0.94-2.03,1.41-3.42,1.41c-1.39,0-2.56-0.47-3.5-1.41c-0.94-0.94-1.41-2.06-1.41-3.35
	V86.81l-8.78,8.78c-0.3,0.3-0.67,0.45-1.11,0.45c-0.45,0-0.82-0.15-1.12-0.45c-0.3-0.3-0.45-0.67-0.45-1.12
	c0-0.45,0.15-0.82,0.45-1.12l12.5-12.5c0.79-0.79,1.69-1.26,2.68-1.41c0.99-0.15,1.93,0.03,2.83,0.52c1.59,0.7,2.48,2.03,2.68,4.02
	v68.16C494.64,153.43,494.19,154.55,493.3,155.49z"/>
<path class="st6" d="M510.96,123.87c0.99-4.96,2.68-9.72,5.06-14.29c2.38-4.56,4.91-8.75,7.59-12.57c2.68-3.82,5.26-7.14,7.74-9.97
	c2.48-2.83,4.36-4.99,5.66-6.47c0.79-0.79,1.79-1.19,2.98-1.19c1.19,0,2.21,0.42,3.05,1.26c0.84,0.84,1.27,1.86,1.27,3.05
	c0,1.19-0.5,2.28-1.49,3.27c-2.78,2.88-5.73,6.38-8.86,10.49c-3.12,4.12-5.93,8.56-8.41,13.32c1.98-0.99,4.12-1.76,6.4-2.31
	c2.28-0.54,4.66-0.82,7.14-0.82c3.97,0,7.71,0.65,11.24,1.93c3.52,1.29,6.6,3.08,9.23,5.36c2.63,2.28,4.71,4.96,6.25,8.04
	c1.54,3.08,2.31,6.35,2.31,9.82c0,3.47-0.77,6.72-2.31,9.75c-1.54,3.03-3.62,5.68-6.25,7.96c-2.63,2.28-5.71,4.09-9.23,5.43
	c-3.52,1.34-7.27,2.01-11.24,2.01c-6.45,0-12.15-1.61-17.11-4.84c-4.96-3.22-8.43-7.32-10.42-12.28c-1.09-2.78-1.62-5.58-1.56-8.41
	C510.04,129.6,510.36,126.75,510.96,123.87z M523.16,116.13c-1.09,2.68-1.99,5.48-2.68,8.41c-0.7,2.93-0.99,5.83-0.89,8.71
	c0.1,2.88,0.64,5.66,1.64,8.33c0.99,2.68,2.63,5.16,4.91,7.44c1.69,1.69,3.62,3.03,5.8,4.02c2.18,0.99,4.56,1.49,7.14,1.49
	c2.68,0,5.18-0.57,7.52-1.71c2.33-1.14,4.39-2.7,6.18-4.69c1.79-1.98,3.17-4.29,4.17-6.92c0.99-2.63,1.49-5.48,1.49-8.56
	c0-2.98-0.5-5.8-1.49-8.48c-0.99-2.68-2.38-4.98-4.17-6.92c-1.79-1.93-3.85-3.47-6.18-4.61c-2.33-1.14-4.84-1.71-7.52-1.71
	c-3.08,0-5.95,0.45-8.63,1.34C527.78,113.15,525.35,114.44,523.16,116.13z"/>
</svg>
